<svg xmlns="http://www.w3.org/2000/svg" xmlns:xlink="http://www.w3.org/1999/xlink" version="1.1" width="256" height="256" viewBox="0 0 256 256" xml:space="preserve">

<defs>
</defs>
<g style="stroke: none; stroke-width: 0; stroke-dasharray: none; stroke-linecap: butt; stroke-linejoin: miter; stroke-miterlimit: 10; fill: none; fill-rule: nonzero; opacity: 1;" transform="translate(1.4065934065934016 1.4065934065934016) scale(2.81 2.81)" >
	<path d="M 30.37 38.985 c -0.156 0 -0.313 -0.036 -0.461 -0.113 c -1.511 -0.789 -2.98 -0.789 -4.491 0 c -0.49 0.255 -1.094 0.065 -1.349 -0.424 c -0.255 -0.49 -0.065 -1.094 0.424 -1.349 c 2.104 -1.097 4.237 -1.096 6.34 0 c 0.49 0.255 0.68 0.859 0.424 1.349 C 31.079 38.789 30.73 38.985 30.37 38.985 z" style="stroke: none; stroke-width: 1; stroke-dasharray: none; stroke-linecap: butt; stroke-linejoin: miter; stroke-miterlimit: 10; fill: rgb(0,0,0); fill-rule: nonzero; opacity: 1;" transform=" matrix(1 0 0 1 0 0) " stroke-linecap="round" />
	<path d="M 40.664 38.985 c -0.156 0 -0.313 -0.036 -0.461 -0.113 c -1.511 -0.789 -2.98 -0.789 -4.491 0 c -0.489 0.255 -1.094 0.065 -1.349 -0.424 c -0.255 -0.49 -0.065 -1.094 0.424 -1.349 c 2.104 -1.097 4.237 -1.096 6.34 0 c 0.49 0.255 0.68 0.859 0.424 1.349 C 41.373 38.789 41.024 38.985 40.664 38.985 z" style="stroke: none; stroke-width: 1; stroke-dasharray: none; stroke-linecap: butt; stroke-linejoin: miter; stroke-miterlimit: 10; fill: rgb(0,0,0); fill-rule: nonzero; opacity: 1;" transform=" matrix(1 0 0 1 0 0) " stroke-linecap="round" />
	<path d="M 32.803 51.246 c -1.538 0 -3.072 -0.726 -4.563 -2.178 c -0.396 -0.385 -0.404 -1.019 -0.019 -1.414 c 0.385 -0.396 1.019 -0.403 1.414 -0.018 c 2.188 2.13 4.146 2.131 6.351 -0.003 c 0.396 -0.383 1.029 -0.374 1.414 0.023 c 0.384 0.396 0.374 1.03 -0.023 1.414 C 35.878 50.521 34.339 51.246 32.803 51.246 z" style="stroke: none; stroke-width: 1; stroke-dasharray: none; stroke-linecap: butt; stroke-linejoin: miter; stroke-miterlimit: 10; fill: rgb(0,0,0); fill-rule: nonzero; opacity: 1;" transform=" matrix(1 0 0 1 0 0) " stroke-linecap="round" />
	<path d="M 53.628 62.434 l -7.39 -1.245 c -2.378 -0.4 -4.104 -2.28 -4.104 -4.493 L 42.1 55.21 c 0.112 -0.105 0.233 -0.196 0.343 -0.305 c 0.29 -0.288 0.56 -0.596 0.831 -0.902 c 3.178 -0.58 5.66 -3.162 6.092 -6.389 h 1.483 c 1.538 0 2.789 -1.251 2.789 -2.789 v -7.542 c 0 -1.538 -1.251 -2.789 -2.789 -2.789 h -2.33 l 0.004 -0.062 c 0.293 -0.146 0.503 -0.423 0.548 -0.751 c 1.002 -7.15 -0.051 -12.569 -3.127 -16.106 c -2.774 -3.19 -7.126 -4.807 -12.937 -4.807 c -5.818 0 -10.834 2.025 -13.76 5.557 c -2.922 3.526 -3.829 8.355 -2.695 14.352 c 0.05 0.263 0.208 0.478 0.416 0.624 l 0.089 1.194 h -2.286 c -1.538 0 -2.789 1.251 -2.789 2.789 v 7.542 c 0 1.538 1.251 2.789 2.789 2.789 h 3.866 c 0.987 2.904 2.671 5.511 4.884 7.599 l -0.036 1.505 c 0 2.19 -1.726 4.07 -4.104 4.471 l -7.389 1.245 c -4.377 0.737 -7.555 4.275 -7.555 8.413 v 15.886 C 4.438 88.534 5.99 90 7.898 90 h 49.822 c 1.908 0 3.461 -1.466 3.461 -3.268 V 70.847 C 61.182 66.709 58.005 63.171 53.628 62.434 z M 45.627 50.692 c 0.242 -0.436 0.475 -0.879 0.681 -1.332 c 0.26 -0.571 0.48 -1.155 0.68 -1.746 h 0.357 C 47.122 48.825 46.503 49.896 45.627 50.692 z M 50.849 36.495 c 0.436 0 0.789 0.354 0.789 0.789 v 7.542 c 0 0.435 -0.354 0.789 -0.789 0.789 h -3.314 c 0.174 -0.8 0.313 -1.609 0.382 -2.435 l 0.463 -6.684 H 50.849 z M 45.055 20.57 c 0.089 -0.166 0.177 -0.333 0.263 -0.502 c 1.779 2.771 2.443 6.656 1.978 11.589 C 44.39 29.278 42.396 26.66 45.055 20.57 z M 20.788 19.602 c 2.545 -3.071 6.999 -4.833 12.22 -4.833 c 4.834 0 8.495 1.195 10.896 3.556 c -0.223 0.442 -0.425 0.872 -0.608 1.289 c -4.611 8.561 -13.356 12.778 -24.91 11.944 C 17.575 26.525 18.381 22.505 20.788 19.602 z M 14.771 45.614 c -0.435 0 -0.789 -0.354 -0.789 -0.789 v -7.542 c 0 -0.435 0.354 -0.789 0.789 -0.789 h 2.435 l 0.498 6.698 c 0.069 0.822 0.199 1.628 0.372 2.421 H 14.771 z M 19.698 43.036 l -0.702 -9.442 c 9.765 0.533 17.625 -2.378 22.854 -8.367 c -0.143 4.146 2.305 6.5 4.723 8.411 l -0.65 9.389 c -0.16 1.911 -0.643 3.763 -1.435 5.506 c -0.418 0.92 -0.924 1.807 -1.502 2.636 c -0.227 0.325 -0.476 0.637 -0.727 0.947 c -0.111 0.007 -0.222 0.017 -0.335 0.017 h -5.495 c -0.552 0 -1 0.447 -1 1 s 0.448 1 1 1 h 3.877 c -1.566 1.38 -3.344 2.459 -5.326 3.176 c -1.399 0.506 -2.941 0.506 -4.341 0 C 24.534 55.102 20.239 49.496 19.698 43.036 z M 25.48 56.827 c 1.362 0.973 2.861 1.777 4.479 2.361 c 0.919 0.332 1.885 0.499 2.851 0.499 s 1.932 -0.167 2.851 -0.499 c 1.615 -0.584 3.104 -1.394 4.479 -2.376 c 0.033 2.141 1.169 4.064 2.947 5.243 c -6.891 6.214 -13.636 6.215 -20.549 -0.001 C 24.315 60.876 25.451 58.955 25.48 56.827 z M 12.324 64.406 l 7.389 -1.245 c 0.294 -0.05 0.579 -0.121 0.858 -0.203 c 4.069 3.862 8.16 5.812 12.249 5.812 c 4.089 0 8.174 -1.95 12.23 -5.811 c 0.279 0.081 0.563 0.153 0.856 0.203 l 7.39 1.245 c 3.41 0.574 5.886 3.282 5.886 6.44 v 6.332 h -5.787 c -1.513 0 -2.972 0.593 -4.004 1.626 c -0.951 0.953 -1.474 2.197 -1.472 3.503 c 0.004 3.124 0.003 4.801 0 5.692 H 17.643 c -0.003 -0.892 -0.003 -2.569 0.001 -5.691 c 0.002 -1.307 -0.521 -2.551 -1.473 -3.504 c -1.032 -1.033 -2.491 -1.626 -4.003 -1.626 h -5.73 v -6.332 C 6.438 67.688 8.913 64.98 12.324 64.406 z M 6.438 86.732 v -7.554 h 5.73 c 0.985 0 1.928 0.379 2.588 1.039 c 0.574 0.574 0.889 1.315 0.888 2.088 c -0.004 3.122 -0.003 4.792 -0.001 5.694 H 7.898 C 7.093 88 6.438 87.432 6.438 86.732 z M 57.721 88 H 49.92 c 0.003 -0.903 0.003 -2.573 -0.001 -5.695 c -0.001 -0.771 0.313 -1.513 0.888 -2.087 c 0.659 -0.66 1.603 -1.039 2.588 -1.039 h 5.787 v 7.554 C 59.182 87.432 58.526 88 57.721 88 z" style="stroke: none; stroke-width: 1; stroke-dasharray: none; stroke-linecap: butt; stroke-linejoin: miter; stroke-miterlimit: 10; fill: rgb(0,0,0); fill-rule: nonzero; opacity: 1;" transform=" matrix(1 0 0 1 0 0) " stroke-linecap="round" />
	<path d="M 58.642 32.673 c -0.146 0 -0.291 -0.032 -0.428 -0.096 c -0.35 -0.166 -0.572 -0.518 -0.572 -0.904 v -6.649 c -2.633 -0.473 -4.637 -2.781 -4.637 -5.547 V 5.636 C 53.005 2.528 55.533 0 58.642 0 h 21.284 c 3.108 0 5.637 2.528 5.637 5.636 v 13.84 c 0 3.108 -2.528 5.636 -5.637 5.636 h -11.72 l -8.93 7.333 C 59.094 32.595 58.869 32.673 58.642 32.673 z M 58.642 2 c -2.005 0 -3.637 1.631 -3.637 3.636 v 13.84 c 0 2.005 1.632 3.636 3.637 3.636 c 0.553 0 1 0.448 1 1 v 5.445 l 7.571 -6.218 c 0.179 -0.147 0.403 -0.227 0.635 -0.227 h 12.078 c 2.005 0 3.637 -1.631 3.637 -3.636 V 5.636 C 83.563 3.631 81.931 2 79.926 2 H 58.642 z" style="stroke: none; stroke-width: 1; stroke-dasharray: none; stroke-linecap: butt; stroke-linejoin: miter; stroke-miterlimit: 10; fill: rgb(0,0,0); fill-rule: nonzero; opacity: 1;" transform=" matrix(1 0 0 1 0 0) " stroke-linecap="round" />
	<path d="M 73.419 17.45 h -2.92 c -0.553 0 -1 -0.448 -1 -1 v -3.21 c 0 -0.552 0.447 -1 1 -1 h 1.92 v -1.478 h -1.92 c -0.553 0 -1 -0.448 -1 -1 s 0.447 -1 1 -1 h 2.92 c 0.553 0 1 0.448 1 1 v 3.478 c 0 0.552 -0.447 1 -1 1 h -1.92 v 1.21 h 1.92 c 0.553 0 1 0.448 1 1 S 73.972 17.45 73.419 17.45 z" style="stroke: none; stroke-width: 1; stroke-dasharray: none; stroke-linecap: butt; stroke-linejoin: miter; stroke-miterlimit: 10; fill: rgb(0,0,0); fill-rule: nonzero; opacity: 1;" transform=" matrix(1 0 0 1 0 0) " stroke-linecap="round" />
	<path d="M 80.003 17.45 c -0.553 0 -1 -0.448 -1 -1 v -0.375 H 76.69 c -0.318 0 -0.617 -0.151 -0.806 -0.408 s -0.244 -0.587 -0.148 -0.891 l 1.757 -5.625 c 0.163 -0.527 0.726 -0.82 1.252 -0.656 c 0.527 0.165 0.821 0.726 0.656 1.253 l -1.351 4.327 h 0.952 v -0.563 c 0 -0.552 0.447 -1 1 -1 s 1 0.448 1 1 v 2.938 C 81.003 17.002 80.556 17.45 80.003 17.45 z" style="stroke: none; stroke-width: 1; stroke-dasharray: none; stroke-linecap: butt; stroke-linejoin: miter; stroke-miterlimit: 10; fill: rgb(0,0,0); fill-rule: nonzero; opacity: 1;" transform=" matrix(1 0 0 1 0 0) " stroke-linecap="round" />
	<path d="M 61.244 12.142 l 0.761 -2.028 c 0.115 -0.307 0.072 -0.651 -0.114 -0.921 c -0.188 -0.27 -0.494 -0.431 -0.822 -0.431 h -3.563 c -0.553 0 -1 0.448 -1 1 s 0.447 1 1 1 h 2.119 l -0.505 1.344 h -0.563 c -0.553 0 -1 0.448 -1 1 c 0 0.49 0.359 0.879 0.825 0.965 l -0.761 2.028 c -0.193 0.517 0.068 1.094 0.585 1.288 c 0.116 0.043 0.234 0.064 0.352 0.064 c 0.404 0 0.785 -0.248 0.937 -0.649 l 1.012 -2.695 h 0.562 c 0.553 0 1 -0.448 1 -1 C 62.068 12.616 61.709 12.227 61.244 12.142 z" style="stroke: none; stroke-width: 1; stroke-dasharray: none; stroke-linecap: butt; stroke-linejoin: miter; stroke-miterlimit: 10; fill: rgb(0,0,0); fill-rule: nonzero; opacity: 1;" transform=" matrix(1 0 0 1 0 0) " stroke-linecap="round" />
	<path d="M 63.954 17.718 c -0.123 0 -0.247 -0.023 -0.368 -0.07 c -0.513 -0.203 -0.765 -0.784 -0.562 -1.298 l 2.75 -6.955 c 0.203 -0.514 0.785 -0.764 1.298 -0.563 c 0.513 0.203 0.765 0.784 0.562 1.298 l -2.75 6.955 C 64.729 17.478 64.353 17.718 63.954 17.718 z" style="stroke: none; stroke-width: 1; stroke-dasharray: none; stroke-linecap: butt; stroke-linejoin: miter; stroke-miterlimit: 10; fill: rgb(0,0,0); fill-rule: nonzero; opacity: 1;" transform=" matrix(1 0 0 1 0 0) " stroke-linecap="round" />
</g>
</svg>