<?xml version="1.0" encoding="UTF-8"?>
<svg xmlns="http://www.w3.org/2000/svg" xmlns:xlink="http://www.w3.org/1999/xlink" width="1500px" height="875px" viewBox="0 0 1500 875" version="1.1">
<defs>
<filter id="alpha" filterUnits="objectBoundingBox" x="0%" y="0%" width="100%" height="100%">
  <feColorMatrix type="matrix" in="SourceGraphic" values="0 0 0 0 1 0 0 0 0 1 0 0 0 0 1 0 0 0 1 0"/>
</filter>
<mask id="mask0">
  <g filter="url(#alpha)">
<rect x="0" y="0" width="1500" height="875" style="fill:rgb(0%,0%,0%);fill-opacity:0.0784314;stroke:none;"/>
  </g>
</mask>
<clipPath id="clip1">
  <rect x="0" y="0" width="1500" height="876"/>
</clipPath>
<g id="surface5" clip-path="url(#clip1)">
<path style=" stroke:none;fill-rule:nonzero;fill:rgb(8.235294%,14.901961%,41.568627%);fill-opacity:1;" d="M 789.9375 154.917969 C 774.199219 154.917969 759.101562 161.160156 747.96875 172.289062 C 736.835938 183.414062 730.582031 198.511719 730.582031 214.25 C 730.582031 216.207031 730.6875 218.125 730.875 220.019531 C 710.230469 202.089844 680 200.605469 657.703125 216.429688 C 635.402344 232.257812 626.824219 261.28125 636.9375 286.6875 C 612.335938 278.503906 585.269531 287.257812 570.121094 308.300781 C 554.976562 329.34375 555.261719 357.789062 570.832031 378.519531 C 528.390625 384.597656 496.789062 420.828125 496.535156 463.703125 C 496.289062 506.582031 527.460938 543.179688 569.832031 549.75 C 554.882812 570.761719 555.234375 599.027344 570.703125 619.660156 C 586.167969 640.292969 613.203125 648.558594 637.5625 640.105469 C 626.460938 665.960938 635.058594 696.054688 658.136719 712.152344 C 681.214844 728.246094 712.425781 725.914062 732.855469 706.5625 C 726.578125 728.816406 733.800781 752.691406 751.359375 767.734375 C 768.921875 782.777344 793.625 786.246094 814.648438 776.625 C 835.675781 767 849.195312 746.039062 849.292969 722.917969 L 849.292969 214.25 C 849.28125 181.476562 822.710938 154.917969 789.9375 154.917969 Z M 789.9375 154.917969 "/>
</g>
<mask id="mask1">
  <g filter="url(#alpha)">
<rect x="0" y="0" width="1500" height="875" style="fill:rgb(0%,0%,0%);fill-opacity:0.0784314;stroke:none;"/>
  </g>
</mask>
<clipPath id="clip2">
  <rect x="0" y="0" width="1500" height="876"/>
</clipPath>
<g id="surface8" clip-path="url(#clip2)">
<path style=" stroke:none;fill-rule:nonzero;fill:rgb(8.235294%,14.901961%,41.568627%);fill-opacity:1;" d="M 597.542969 475.542969 L 597.542969 436.9375 L 577.269531 436.9375 C 575.007812 426.574219 570.917969 416.699219 565.1875 407.769531 L 579.519531 393.4375 L 552.207031 366.125 L 537.875 380.457031 C 528.945312 374.734375 519.070312 370.644531 508.707031 368.375 L 508.707031 348.125 L 470.125 348.125 L 470.125 368.394531 C 459.765625 370.664062 449.886719 374.757812 440.957031 380.480469 L 426.625 366.144531 L 399.3125 393.457031 L 413.644531 407.792969 C 407.917969 416.71875 403.828125 426.597656 401.5625 436.957031 L 381.25 436.957031 L 381.25 475.5625 L 401.519531 475.5625 C 403.78125 485.925781 407.875 495.800781 413.605469 504.730469 L 399.269531 519.082031 L 426.582031 546.375 L 440.917969 532.042969 C 449.839844 537.78125 459.71875 541.871094 470.082031 544.125 L 470.082031 564.394531 L 508.6875 564.394531 L 508.6875 544.125 C 519.054688 541.871094 528.933594 537.78125 537.855469 532.042969 L 552.1875 546.375 L 579.5 519.082031 L 565.167969 504.730469 C 570.894531 495.800781 574.988281 485.925781 577.25 475.5625 Z M 489.417969 508.125 C 468.425781 508.125 449.5 495.480469 441.46875 476.085938 C 433.4375 456.6875 437.882812 434.367188 452.726562 419.527344 C 467.574219 404.683594 489.898438 400.25 509.289062 408.289062 C 528.683594 416.328125 541.320312 435.257812 541.3125 456.25 C 541.3125 470.011719 535.84375 483.210938 526.109375 492.9375 C 516.378906 502.667969 503.179688 508.128906 489.417969 508.125 Z M 489.417969 508.125 "/>
</g>
</defs>
<g id="surface1">
<use xlink:href="#surface5" mask="url(#mask0)"/>
<path style="fill-rule:nonzero;fill:rgb(5.882353%,14.509804%,43.137255%);fill-opacity:1;stroke-width:1;stroke-linecap:butt;stroke-linejoin:miter;stroke:rgb(9.411765%,22.745098%,61.960784%);stroke-opacity:1;stroke-miterlimit:4;" d="M 379.17 57.849375 C 371.61375 57.849375 364.366875 60.85125 359.025 66.195 C 353.68125 71.536875 350.679375 78.78375 350.679375 86.34 C 350.679375 87.27 350.73 88.2 350.82 89.109375 C 340.910625 80.503125 326.4 79.790625 315.6975 87.38625 C 304.993125 94.98375 300.875625 108.915 305.73 121.11 C 293.92125 117.181875 280.929375 121.38375 273.658125 131.484375 C 266.38875 141.585 266.525625 155.23875 273.999375 165.189375 C 253.6275 168.106875 238.45875 185.4975 238.336875 206.0775 C 238.21875 226.659375 253.18125 244.22625 273.519375 247.38 C 266.338125 257.46375 266.503125 271.035 273.93 280.940625 C 281.356875 290.844375 294.3375 294.808125 306.03 290.739375 C 300.691875 303.151875 304.813125 317.60625 315.894375 325.336875 C 326.975625 333.0675 341.964375 331.944375 351.770625 322.65 C 348.721875 333.345 352.179375 344.836875 360.624375 352.07625 C 369.0675 359.31375 380.95125 360.975 391.0575 356.330625 C 401.161875 351.684375 407.638125 341.581875 407.64 330.459375 L 407.64 86.34 C 407.634375 70.61625 394.89375 57.86625 379.17 57.849375 Z M 379.17 57.849375 " transform="matrix(2.083333,0,0,2.083333,0,0)"/>
<path style="fill-rule:nonzero;fill:rgb(9.411765%,22.745098%,61.960784%);fill-opacity:1;stroke-width:1;stroke-linecap:butt;stroke-linejoin:miter;stroke:rgb(12.54902%,30.588235%,81.176471%);stroke-opacity:1;stroke-miterlimit:4;" d="M 379.17 44.55 C 363.451875 44.55 350.701875 57.28125 350.679375 72.999375 C 350.679375 73.929375 350.73 74.85 350.82 75.770625 C 340.910625 67.1625 326.4 66.451875 315.6975 74.0475 C 304.993125 81.643125 300.875625 95.57625 305.73 107.769375 C 293.911875 103.8225 280.899375 108.02625 273.6225 118.141875 C 266.3475 128.2575 266.499375 141.93 273.999375 151.880625 C 253.636875 154.81125 238.483125 172.2 238.36125 192.7725 C 238.24125 213.346875 253.1925 230.911875 273.519375 234.080625 C 266.338125 244.164375 266.503125 257.735625 273.93 267.639375 C 281.356875 277.545 294.3375 281.50875 306.03 277.44 C 300.691875 289.8525 304.813125 304.306875 315.894375 312.0375 C 326.975625 319.768125 341.964375 318.645 351.770625 309.350625 C 348.721875 320.045625 352.179375 331.5375 360.624375 338.775 C 369.0675 346.014375 380.95125 347.675625 391.0575 343.029375 C 401.161875 338.385 407.638125 328.2825 407.64 317.16 L 407.64 72.999375 C 407.611875 57.290625 394.87875 44.566875 379.17 44.55 Z M 379.17 44.55 " transform="matrix(2.083333,0,0,2.083333,0,0)"/>
<path style="fill:none;stroke-width:1;stroke-linecap:round;stroke-linejoin:round;stroke:rgb(12.54902%,30.588235%,81.176471%);stroke-opacity:1;stroke-miterlimit:4;" d="M 273.999375 151.880625 C 273.999375 151.880625 291.879375 148.35 309.369375 157.659375 " transform="matrix(2.083333,0,0,2.083333,0,0)"/>
<path style="fill:none;stroke-width:1;stroke-linecap:round;stroke-linejoin:round;stroke:rgb(12.54902%,30.588235%,81.176471%);stroke-opacity:1;stroke-miterlimit:4;" d="M 306.050625 277.44 C 306.050625 277.44 313.899375 262.869375 326.049375 262.310625 " transform="matrix(2.083333,0,0,2.083333,0,0)"/>
<path style="fill:none;stroke-width:1;stroke-linecap:round;stroke-linejoin:round;stroke:rgb(12.54902%,30.588235%,81.176471%);stroke-opacity:1;stroke-miterlimit:4;" d="M 454.08 320.139375 L 454.08 287.420625 L 374.840625 287.420625 " transform="matrix(2.083333,0,0,2.083333,0,0)"/>
<path style="fill:none;stroke-width:1;stroke-linecap:round;stroke-linejoin:round;stroke:rgb(12.54902%,30.588235%,81.176471%);stroke-opacity:1;stroke-miterlimit:4;" d="M 496.959375 296.450625 L 496.959375 242.289375 L 363.63 242.289375 " transform="matrix(2.083333,0,0,2.083333,0,0)"/>
<path style="fill:none;stroke-width:1;stroke-linecap:round;stroke-linejoin:round;stroke:rgb(14.509804%,66.27451%,93.72549%);stroke-opacity:1;stroke-miterlimit:4;" d="M 333.12 195.099375 L 516.140625 195.099375 " transform="matrix(2.083333,0,0,2.083333,0,0)"/>
<path style="fill:none;stroke-width:1;stroke-linecap:round;stroke-linejoin:round;stroke:rgb(12.54902%,30.588235%,81.176471%);stroke-opacity:1;stroke-miterlimit:4;" d="M 343.32 148.68 L 474.39 148.68 L 515.88 107.19 " transform="matrix(2.083333,0,0,2.083333,0,0)"/>
<path style="fill:none;stroke-width:1;stroke-linecap:round;stroke-linejoin:round;stroke:rgb(14.509804%,66.27451%,93.72549%);stroke-opacity:1;stroke-miterlimit:4;" d="M 363.63 102.39 L 430.869375 102.39 L 462.12 71.139375 " transform="matrix(2.083333,0,0,2.083333,0,0)"/>
<path style="fill-rule:nonzero;fill:rgb(12.54902%,30.588235%,81.176471%);fill-opacity:1;stroke-width:1;stroke-linecap:round;stroke-linejoin:round;stroke:rgb(14.509804%,66.27451%,93.72549%);stroke-opacity:1;stroke-miterlimit:4;" d="M 478.719375 62.709375 C 478.719375 68.315625 474.17625 72.860625 468.57 72.860625 C 462.96375 72.860625 458.420625 68.315625 458.420625 62.709375 C 458.420625 57.105 462.96375 52.56 468.57 52.56 C 474.17625 52.56 478.719375 57.105 478.719375 62.709375 Z M 478.719375 62.709375 " transform="matrix(2.083333,0,0,2.083333,0,0)"/>
<path style="fill:none;stroke-width:1;stroke-linecap:round;stroke-linejoin:round;stroke:rgb(12.54902%,30.588235%,81.176471%);stroke-opacity:1;stroke-miterlimit:4;" d="M 531.860625 98.76 C 531.860625 104.36625 527.315625 108.909375 521.709375 108.909375 C 516.105 108.909375 511.56 104.36625 511.56 98.76 C 511.56 93.15375 516.105 88.610625 521.709375 88.610625 C 527.315625 88.610625 531.860625 93.15375 531.860625 98.76 Z M 531.860625 98.76 " transform="matrix(2.083333,0,0,2.083333,0,0)"/>
<path style="fill:none;stroke-width:1;stroke-linecap:round;stroke-linejoin:round;stroke:rgb(12.54902%,30.588235%,81.176471%);stroke-opacity:1;stroke-miterlimit:4;" d="M 343.32 148.68 C 343.32 154.28625 338.775 158.829375 333.170625 158.829375 C 327.564375 158.829375 323.019375 154.28625 323.019375 148.68 C 323.019375 143.07375 327.564375 138.530625 333.170625 138.530625 C 338.775 138.530625 343.32 143.07375 343.32 148.68 Z M 343.32 148.68 " transform="matrix(2.083333,0,0,2.083333,0,0)"/>
<path style="fill-rule:nonzero;fill:rgb(12.54902%,30.588235%,81.176471%);fill-opacity:1;stroke-width:1;stroke-linecap:round;stroke-linejoin:round;stroke:rgb(14.509804%,66.27451%,93.72549%);stroke-opacity:1;stroke-miterlimit:4;" d="M 333.12 195.099375 C 333.12 200.705625 328.575 205.250625 322.970625 205.250625 C 317.364375 205.250625 312.819375 200.705625 312.819375 195.099375 C 312.819375 189.495 317.364375 184.95 322.970625 184.95 C 328.575 184.95 333.12 189.495 333.12 195.099375 Z M 333.12 195.099375 " transform="matrix(2.083333,0,0,2.083333,0,0)"/>
<path style=" stroke:none;fill-rule:nonzero;fill:rgb(12.54902%,30.588235%,81.176471%);fill-opacity:1;" d="M 639.875 463.019531 C 639.875 471.902344 632.675781 479.105469 623.792969 479.105469 C 614.910156 479.105469 607.707031 471.902344 607.707031 463.019531 C 607.707031 454.136719 614.910156 446.9375 623.792969 446.9375 C 632.675781 446.9375 639.875 454.136719 639.875 463.019531 Z M 639.875 463.019531 "/>
<path style=" stroke:none;fill-rule:nonzero;fill:rgb(12.54902%,30.588235%,81.176471%);fill-opacity:1;" d="M 710.1875 546.480469 C 710.1875 555.363281 702.988281 562.5625 694.105469 562.5625 C 685.222656 562.5625 678.019531 555.363281 678.019531 546.480469 C 678.019531 537.597656 685.222656 530.394531 694.105469 530.394531 C 702.988281 530.394531 710.1875 537.597656 710.1875 546.480469 Z M 710.1875 546.480469 "/>
<path style=" stroke:none;fill-rule:nonzero;fill:rgb(14.509804%,66.27451%,93.72549%);fill-opacity:1;" d="M 660.644531 234.457031 C 660.644531 243.339844 653.445312 250.542969 644.5625 250.542969 C 635.679688 250.542969 628.480469 243.339844 628.480469 234.457031 C 628.480469 225.574219 635.679688 218.375 644.5625 218.375 C 653.445312 218.375 660.644531 225.574219 660.644531 234.457031 Z M 660.644531 234.457031 "/>
<path style="fill:none;stroke-width:1;stroke-linecap:round;stroke-linejoin:round;stroke:rgb(12.54902%,30.588235%,81.176471%);stroke-opacity:1;stroke-miterlimit:4;" d="M 363.63 102.39 C 363.63 107.99625 359.085 112.539375 353.480625 112.539375 C 347.874375 112.539375 343.329375 107.99625 343.329375 102.39 C 343.329375 96.78375 347.874375 92.240625 353.480625 92.240625 C 359.085 92.240625 363.63 96.78375 363.63 102.39 Z M 363.63 102.39 " transform="matrix(2.083333,0,0,2.083333,0,0)"/>
<path style="fill:none;stroke-width:1;stroke-linecap:round;stroke-linejoin:round;stroke:rgb(12.54902%,30.588235%,81.176471%);stroke-opacity:1;stroke-miterlimit:4;" d="M 363.63 242.289375 C 363.63 247.895625 359.085 252.440625 353.480625 252.440625 C 347.874375 252.440625 343.329375 247.895625 343.329375 242.289375 C 343.329375 236.685 347.874375 232.14 353.480625 232.14 C 359.085 232.14 363.63 236.685 363.63 242.289375 Z M 363.63 242.289375 " transform="matrix(2.083333,0,0,2.083333,0,0)"/>
<path style="fill-rule:nonzero;fill:rgb(12.54902%,30.588235%,81.176471%);fill-opacity:1;stroke-width:1;stroke-linecap:round;stroke-linejoin:round;stroke:rgb(14.509804%,66.27451%,93.72549%);stroke-opacity:1;stroke-miterlimit:4;" d="M 373.779375 287.420625 C 373.779375 293.025 369.23625 297.57 363.63 297.57 C 358.02375 297.57 353.480625 293.025 353.480625 287.420625 C 353.480625 281.814375 358.02375 277.269375 363.63 277.269375 C 369.23625 277.269375 373.779375 281.814375 373.779375 287.420625 Z M 373.779375 287.420625 " transform="matrix(2.083333,0,0,2.083333,0,0)"/>
<path style="fill:none;stroke-width:1;stroke-linecap:round;stroke-linejoin:round;stroke:rgb(14.509804%,66.27451%,93.72549%);stroke-opacity:1;stroke-miterlimit:4;" d="M 536.960625 195.099375 C 536.960625 200.705625 532.415625 205.250625 526.809375 205.250625 C 521.205 205.250625 516.66 200.705625 516.66 195.099375 C 516.66 189.495 521.205 184.95 526.809375 184.95 C 532.415625 184.95 536.960625 189.495 536.960625 195.099375 Z M 536.960625 195.099375 " transform="matrix(2.083333,0,0,2.083333,0,0)"/>
<path style="fill-rule:nonzero;fill:rgb(12.54902%,30.588235%,81.176471%);fill-opacity:1;stroke-width:1;stroke-linecap:round;stroke-linejoin:round;stroke:rgb(14.509804%,66.27451%,93.72549%);stroke-opacity:1;stroke-miterlimit:4;" d="M 507.110625 306.6 C 507.110625 312.20625 502.565625 316.749375 496.959375 316.749375 C 491.355 316.749375 486.81 312.20625 486.81 306.6 C 486.81 300.99375 491.355 296.450625 496.959375 296.450625 C 502.565625 296.450625 507.110625 300.99375 507.110625 306.6 Z M 507.110625 306.6 " transform="matrix(2.083333,0,0,2.083333,0,0)"/>
<path style="fill:none;stroke-width:1;stroke-linecap:round;stroke-linejoin:round;stroke:rgb(12.54902%,30.588235%,81.176471%);stroke-opacity:1;stroke-miterlimit:4;" d="M 464.240625 330.3 C 464.240625 335.90625 459.695625 340.449375 454.089375 340.449375 C 448.485 340.449375 443.94 335.90625 443.94 330.3 C 443.94 324.69375 448.485 320.150625 454.089375 320.150625 C 459.695625 320.150625 464.240625 324.69375 464.240625 330.3 Z M 464.240625 330.3 " transform="matrix(2.083333,0,0,2.083333,0,0)"/>
<path style="fill:none;stroke-width:1;stroke-linecap:round;stroke-linejoin:round;stroke:rgb(12.54902%,30.588235%,81.176471%);stroke-opacity:1;stroke-miterlimit:4;" d="M 273.54 234.080625 C 273.54 234.080625 279.939375 222.819375 291.699375 222.249375 " transform="matrix(2.083333,0,0,2.083333,0,0)"/>
<use xlink:href="#surface8" mask="url(#mask1)"/>
<path style="fill-rule:nonzero;fill:rgb(9.411765%,22.745098%,61.960784%);fill-opacity:1;stroke-width:1;stroke-linecap:butt;stroke-linejoin:miter;stroke:rgb(12.54902%,30.588235%,81.176471%);stroke-opacity:1;stroke-miterlimit:4;" d="M 286.820625 213.54 L 286.820625 195 L 277.089375 195 C 276.001875 190.025625 274.03875 185.285625 271.29 180.999375 L 278.169375 174.12 L 278.169375 166.700625 L 265.059375 161.000625 L 258.18 167.889375 C 253.895625 165.136875 249.155625 163.168125 244.179375 162.080625 L 244.179375 152.360625 L 225.66 152.360625 L 225.66 162.080625 C 220.685625 163.168125 215.94375 165.136875 211.659375 167.889375 L 204.789375 161.000625 L 191.679375 166.689375 L 191.679375 174.110625 L 198.560625 180.99 C 195.811875 185.27625 193.846875 190.01625 192.759375 194.990625 L 183 194.990625 L 183 213.530625 L 192.729375 213.530625 C 193.816875 218.503125 195.781875 223.245 198.530625 227.529375 L 191.649375 226.989375 L 191.649375 234.410625 L 204.759375 247.520625 L 211.640625 240.639375 C 215.926875 243.38625 220.666875 245.35125 225.639375 246.440625 L 225.639375 256.160625 L 244.17 256.160625 L 244.17 246.440625 C 249.1425 245.35125 253.884375 243.38625 258.170625 240.639375 L 265.05 247.520625 L 278.16 234.410625 L 278.16 227.000625 L 271.280625 227.540625 C 274.029375 223.254375 275.9925 218.514375 277.08 213.54 Z M 234.920625 229.179375 C 224.844375 229.179375 215.761875 223.11 211.906875 213.8025 C 208.05 204.495 210.181875 193.779375 217.306875 186.65625 C 224.43 179.53125 235.14375 177.40125 244.453125 181.25625 C 253.760625 185.11125 259.83 194.195625 259.83 204.27 C 259.831875 210.8775 257.20875 217.215 252.53625 221.8875 C 247.865625 226.56 241.528125 229.183125 234.920625 229.179375 Z M 234.920625 229.179375 " transform="matrix(2.083333,0,0,2.083333,0,0)"/>
<path style="fill-rule:nonzero;fill:rgb(12.54902%,30.588235%,81.176471%);fill-opacity:1;stroke-width:1;stroke-linecap:butt;stroke-linejoin:miter;stroke:rgb(14.509804%,66.27451%,93.72549%);stroke-opacity:1;stroke-miterlimit:4;" d="M 286.820625 206.120625 L 286.820625 187.580625 L 277.089375 187.580625 C 276.001875 182.60625 274.03875 177.86625 271.29 173.58 L 278.169375 166.700625 L 265.059375 153.6 L 258.18 160.479375 C 253.8975 157.725 249.155625 155.761875 244.179375 154.68 L 244.179375 144.999375 L 225.66 144.999375 L 225.66 154.730625 C 220.68375 155.810625 215.941875 157.775625 211.659375 160.53 L 204.78 153.650625 L 191.67 166.749375 L 198.549375 173.630625 C 195.800625 177.915 193.8375 182.656875 192.75 187.629375 L 183 187.629375 L 183 206.169375 L 192.729375 206.169375 C 193.816875 211.14375 195.781875 215.88375 198.530625 220.17 L 191.679375 227.000625 L 204.789375 240.110625 L 211.670625 233.229375 C 215.956875 235.97625 220.696875 237.94125 225.669375 239.030625 L 225.669375 248.750625 L 244.2 248.750625 L 244.2 239.000625 C 249.1725 237.91125 253.914375 235.94625 258.200625 233.199375 L 265.08 240.080625 L 278.169375 227.000625 L 271.29 220.119375 C 274.03875 215.835 276.001875 211.093125 277.089375 206.120625 Z M 234.920625 221.76 C 224.844375 221.76 215.761875 215.690625 211.906875 206.383125 C 208.05 197.07375 210.181875 186.36 217.306875 179.236875 C 224.43 172.111875 235.14375 169.98 244.453125 173.836875 C 253.760625 177.691875 259.83 186.774375 259.83 196.850625 C 259.831875 203.458125 257.20875 209.795625 252.53625 214.46625 C 247.865625 219.13875 241.528125 221.761875 234.920625 221.76 Z M 234.920625 221.76 " transform="matrix(2.083333,0,0,2.083333,0,0)"/>
<path style="fill:none;stroke-width:1;stroke-linecap:butt;stroke-linejoin:miter;stroke:rgb(17.647059%,31.372549%,77.647059%);stroke-opacity:1;stroke-miterlimit:4;" d="M 211.670625 233.22 L 211.670625 240.639375 " transform="matrix(2.083333,0,0,2.083333,0,0)"/>
<path style="fill:none;stroke-width:1;stroke-linecap:butt;stroke-linejoin:miter;stroke:rgb(17.647059%,31.372549%,77.647059%);stroke-opacity:1;stroke-miterlimit:4;" d="M 204.789375 240.099375 L 204.789375 247.520625 " transform="matrix(2.083333,0,0,2.083333,0,0)"/>
<path style="fill:none;stroke-width:1;stroke-linecap:butt;stroke-linejoin:miter;stroke:rgb(17.647059%,31.372549%,77.647059%);stroke-opacity:1;stroke-miterlimit:4;" d="M 258.18 233.22 L 258.18 241.14 " transform="matrix(2.083333,0,0,2.083333,0,0)"/>
<path style="fill:none;stroke-width:1;stroke-linecap:butt;stroke-linejoin:miter;stroke:rgb(17.647059%,31.372549%,77.647059%);stroke-opacity:1;stroke-miterlimit:4;" d="M 277.089375 206.120625 L 277.089375 214.130625 " transform="matrix(2.083333,0,0,2.083333,0,0)"/>
</g>
</svg>
